REM DIRINDEX 1\2,1\3
REM DIRNAME folder01,folder02,folder03
TITLE ""
FILE "0361-0400.mp3" MP3
  TRACK 01 AUDIO
    TITLE "0:"
    INDEX 01 00:00:00
  TRACK 02 AUDIO
    TITLE "2:cjc039_0361"
    INDEX 01 00:00:29
  TRACK 03 AUDIO
    TITLE "0:"
    INDEX 01 00:01:48
  TRACK 04 AUDIO
    TITLE "2:cjc039_0362"
    INDEX 01 00:02:16
  TRACK 05 AUDIO
    TITLE "0:"
    INDEX 01 00:03:53
  TRACK 06 AUDIO
    TITLE "2:cjc039_0363"
    INDEX 01 00:04:25
  TRACK 07 AUDIO
    TITLE "0:"
    INDEX 01 00:05:71
  TRACK 08 AUDIO
    TITLE "2:cjc039_0364"
    INDEX 01 00:06:51
  TRACK 09 AUDIO
    TITLE "0:"
    INDEX 01 00:07:62
  TRACK 10 AUDIO
    TITLE "2:cjc039_0365"
    INDEX 01 00:08:46
  TRACK 11 AUDIO
    TITLE "0:"
    INDEX 01 00:10:04
  TRACK 12 AUDIO
    TITLE "2:cjc039_0366"
    INDEX 01 00:10:55
  TRACK 13 AUDIO
    TITLE "0:"
    INDEX 01 00:12:20
  TRACK 14 AUDIO
    TITLE "2:cjc039_0367"
    INDEX 01 00:13:00
  TRACK 15 AUDIO
    TITLE "0:"
    INDEX 01 00:14:23
  TRACK 16 AUDIO
    TITLE "2:cjc039_0368"
    INDEX 01 00:15:01
  TRACK 17 AUDIO
    TITLE "0:"
    INDEX 01 00:16:40
  TRACK 18 AUDIO
    TITLE "2:cjc039_0369"
    INDEX 01 00:17:10
  TRACK 19 AUDIO
    TITLE "0:"
    INDEX 01 00:18:37
  TRACK 20 AUDIO
    TITLE "2:cjc039_0370"
    INDEX 01 00:19:22
  TRACK 21 AUDIO
    TITLE "0:"
    INDEX 01 00:20:47
  TRACK 22 AUDIO
    TITLE "2:cjc039_0371"
    INDEX 01 00:21:23
  TRACK 23 AUDIO
    TITLE "0:"
    INDEX 01 00:22:50
  TRACK 24 AUDIO
    TITLE "2:cjc039_0372"
    INDEX 01 00:23:26
  TRACK 25 AUDIO
    TITLE "0:"
    INDEX 01 00:24:55
  TRACK 26 AUDIO
    TITLE "2:cjc039_0373"
    INDEX 01 00:25:23
  TRACK 27 AUDIO
    TITLE "0:"
    INDEX 01 00:26:48
  TRACK 28 AUDIO
    TITLE "2:cjc039_0374"
    INDEX 01 00:27:22
  TRACK 29 AUDIO
    TITLE "0:"
    INDEX 01 00:28:49
  TRACK 30 AUDIO
    TITLE "2:cjc039_0375"
    INDEX 01 00:29:23
  TRACK 31 AUDIO
    TITLE "0:"
    INDEX 01 00:30:50
  TRACK 32 AUDIO
    TITLE "2:cjc039_0376"
    INDEX 01 00:31:26
  TRACK 33 AUDIO
    TITLE "0:"
    INDEX 01 00:33:07
  TRACK 34 AUDIO
    TITLE "2:cjc039_0377"
    INDEX 01 00:33:56
  TRACK 35 AUDIO
    TITLE "0:"
    INDEX 01 00:35:02
  TRACK 36 AUDIO
    TITLE "2:cjc039_0378"
    INDEX 01 00:35:51
  TRACK 37 AUDIO
    TITLE "0:"
    INDEX 01 00:36:64
  TRACK 38 AUDIO
    TITLE "2:cjc039_0379"
    INDEX 01 00:37:32
  TRACK 39 AUDIO
    TITLE "0:"
    INDEX 01 00:38:51
  TRACK 40 AUDIO
    TITLE "2:cjc039_0380"
    INDEX 01 00:39:31
  TRACK 41 AUDIO
    TITLE "0:"
    INDEX 01 00:40:50
  TRACK 42 AUDIO
    TITLE "2:cjc039_0381"
    INDEX 01 00:41:24
  TRACK 43 AUDIO
    TITLE "0:"
    INDEX 01 00:42:33
  TRACK 44 AUDIO
    TITLE "2:cjc039_0382"
    INDEX 01 00:43:11
  TRACK 45 AUDIO
    TITLE "0:"
    INDEX 01 00:44:38
  TRACK 46 AUDIO
    TITLE "2:cjc039_0383"
    INDEX 01 00:45:14
  TRACK 47 AUDIO
    TITLE "0:"
    INDEX 01 00:46:37
  TRACK 48 AUDIO
    TITLE "2:cjc039_0384"
    INDEX 01 00:47:19
  TRACK 49 AUDIO
    TITLE "0:"
    INDEX 01 00:48:44
  TRACK 50 AUDIO
    TITLE "2:cjc039_0385"
    INDEX 01 00:49:25
  TRACK 51 AUDIO
    TITLE "0:"
    INDEX 01 00:50:50
  TRACK 52 AUDIO
    TITLE "2:cjc039_0386"
    INDEX 01 00:51:34
  TRACK 53 AUDIO
    TITLE "0:"
    INDEX 01 00:52:63
  TRACK 54 AUDIO
    TITLE "2:cjc039_0387"
    INDEX 01 00:53:45
  TRACK 55 AUDIO
    TITLE "0:"
    INDEX 01 00:54:68
  TRACK 56 AUDIO
    TITLE "2:cjc039_0388"
    INDEX 01 00:55:51
  TRACK 57 AUDIO
    TITLE "0:"
    INDEX 01 00:56:67
  TRACK 58 AUDIO
    TITLE "2:cjc039_0389"
    INDEX 01 00:57:46
  TRACK 59 AUDIO
    TITLE "0:"
    INDEX 01 00:59:18
  TRACK 60 AUDIO
    TITLE "2:cjc039_0390"
    INDEX 01 00:59:71
  TRACK 61 AUDIO
    TITLE "0:"
    INDEX 01 01:01:33
  TRACK 62 AUDIO
    TITLE "2:cjc039_0391"
    INDEX 01 01:02:12
  TRACK 63 AUDIO
    TITLE "0:"
    INDEX 01 01:03:41
  TRACK 64 AUDIO
    TITLE "2:cjc039_0392"
    INDEX 01 01:04:15
  TRACK 65 AUDIO
    TITLE "0:"
    INDEX 01 01:05:42
  TRACK 66 AUDIO
    TITLE "2:cjc039_0393"
    INDEX 01 01:06:22
  TRACK 67 AUDIO
    TITLE "0:"
    INDEX 01 01:07:57
  TRACK 68 AUDIO
    TITLE "2:cjc039_0394"
    INDEX 01 01:08:21
  TRACK 69 AUDIO
    TITLE "0:"
    INDEX 01 01:09:40
  TRACK 70 AUDIO
    TITLE "2:cjc039_0395"
    INDEX 01 01:10:18
  TRACK 71 AUDIO
    TITLE "0:"
    INDEX 01 01:11:43
  TRACK 72 AUDIO
    TITLE "2:cjc039_0396"
    INDEX 01 01:12:19
  TRACK 73 AUDIO
    TITLE "0:"
    INDEX 01 01:13:53
  TRACK 74 AUDIO
    TITLE "2:cjc039_0397"
    INDEX 01 01:14:29
  TRACK 75 AUDIO
    TITLE "0:"
    INDEX 01 01:15:60
  TRACK 76 AUDIO
    TITLE "2:cjc039_0398"
    INDEX 01 01:16:40
  TRACK 77 AUDIO
    TITLE "0:"
    INDEX 01 01:17:59
  TRACK 78 AUDIO
    TITLE "2:cjc039_0399"
    INDEX 01 01:18:37
  TRACK 79 AUDIO
    TITLE "0:"
    INDEX 01 01:19:74
  TRACK 80 AUDIO
    TITLE "2:cjc039_0400"
    INDEX 01 01:20:53
  TRACK 81 AUDIO
    TITLE "0:"
    INDEX 01 01:22:11
